<svg width="166" height="76" viewBox="0 0 166 76" fill="none" xmlns="http://www.w3.org/2000/svg">
<g clip-path="url(#clip0_1_30914)">
<path fill-rule="evenodd" clip-rule="evenodd" d="M136.903 23.0674V42.2657H147.957V48.4268H129.055V23.0674H136.903Z" fill="white"/>
<path fill-rule="evenodd" clip-rule="evenodd" d="M118.185 23.0674V28.7714H103.24V32.8755H117.02V38.5795H103.24V42.7228H118.607V48.4268H95.3958V23.0674H118.185Z" fill="white"/>
<path fill-rule="evenodd" clip-rule="evenodd" d="M77.0665 48.4268H69.9691L60.0803 23.0674H68.2837L73.6001 38.4261L78.8177 23.0674H86.8894L77.0665 48.4268Z" fill="white"/>
<path fill-rule="evenodd" clip-rule="evenodd" d="M51.4457 23.0674V28.7714H36.5006V32.8755H50.2804V38.5795H36.5006V42.7228H51.8671V48.4268H28.656V23.0674H51.4457Z" fill="white"/>
<path fill-rule="evenodd" clip-rule="evenodd" d="M8.48007 23.0674V42.2657H19.5342V48.4268H0.635498V23.0674H8.48007Z" fill="white"/>
<path fill-rule="evenodd" clip-rule="evenodd" d="M110.16 68.4186L107.346 68.6341C107.294 68.4056 107.165 68.2016 106.98 68.0562C106.665 67.8778 106.305 67.7939 105.943 67.8145C105.048 67.8145 104.6 68.0518 104.6 68.5263C104.596 68.6133 104.614 68.6999 104.652 68.7781C104.691 68.8563 104.749 68.9236 104.821 68.9736C105.09 69.1234 105.382 69.2261 105.686 69.2773L107.991 69.7997C108.66 69.9076 109.284 70.2046 109.788 70.6551C110.176 71.0837 110.376 71.6474 110.344 72.2223C110.347 72.7268 110.217 73.2233 109.966 73.6622C109.73 74.0859 109.38 74.4364 108.955 74.6744C107.949 75.1722 106.833 75.4113 105.709 75.3698C104.011 75.3698 102.837 75.0128 102.187 74.2989C101.752 73.7857 101.481 73.1563 101.407 72.4901L104.31 72.3823C104.449 73.0712 105.015 73.4141 106.016 73.4141C106.398 73.4342 106.778 73.3459 107.112 73.1594C107.236 73.0902 107.339 72.9891 107.41 72.8668C107.482 72.7444 107.518 72.6052 107.517 72.4639C107.517 72.0721 107.188 71.8109 106.565 71.6869L104.31 71.2461C102.618 70.9131 101.772 70.0827 101.772 68.7549C101.758 68.3357 101.851 67.9197 102.044 67.5466C102.237 67.1734 102.523 66.8554 102.875 66.6228C103.613 66.1135 104.64 65.8621 105.956 65.8621C107.466 65.8621 108.564 66.1341 109.248 66.6783C109.764 67.1223 110.09 67.7446 110.16 68.4186Z" fill="white"/>
<path fill-rule="evenodd" clip-rule="evenodd" d="M98.9443 68.4186L96.1297 68.6341C96.0771 68.4053 95.947 68.2013 95.761 68.0562C95.4473 67.878 95.0882 67.7941 94.7274 67.8145C93.832 67.8145 93.3843 68.0518 93.3843 68.5263C93.3794 68.6134 93.3971 68.7002 93.4357 68.7785C93.4743 68.8568 93.5326 68.924 93.6048 68.9736C93.8734 69.124 94.1664 69.2267 94.4706 69.2773L96.7749 69.7997C97.4445 69.9076 98.0685 70.2046 98.5723 70.6551C98.9586 71.0844 99.1586 71.6476 99.1286 72.2223C99.1313 72.7268 99.0008 73.2232 98.75 73.6622C98.5145 74.0872 98.1631 74.438 97.7361 74.6744C96.7313 75.1725 95.6162 75.4117 94.4936 75.3698C92.795 75.3698 91.6209 75.0128 90.9713 74.2989C90.5367 73.7857 90.2652 73.1562 90.1912 72.4901L93.0913 72.3823C93.2296 73.0723 93.7991 73.4162 94.7998 73.4141C95.1822 73.4342 95.5624 73.3459 95.896 73.1594C96.0198 73.09 96.1225 72.9888 96.1932 72.8664C96.2639 72.744 96.3 72.605 96.2976 72.4639C96.2976 72.0721 95.9684 71.8109 95.3495 71.6869L93.0913 71.2461C91.4037 70.9131 90.5588 70.0826 90.5566 68.7549C90.5418 68.3357 90.6353 67.9197 90.8283 67.5466C91.0214 67.1734 91.3074 66.8554 91.6593 66.6228C92.3967 66.1135 93.4205 65.8621 94.7372 65.8621C96.2515 65.8621 97.3488 66.1341 98.0291 66.6783C98.5453 67.1226 98.8723 67.7445 98.9443 68.4186Z" fill="white"/>
<path fill-rule="evenodd" clip-rule="evenodd" d="M87.5675 66.1428V68.1508H81.9483V69.5972H87.1297V71.6052H81.9483V73.0679H87.7288V75.0759H78.9988V66.1428H87.5675Z" fill="white"/>
<path fill-rule="evenodd" clip-rule="evenodd" d="M75.8157 66.1428V75.0759H73.4291L69.5513 70.2796V75.0759H66.7334V66.1428H69.1365L73.0011 70.962V66.1428H75.8157Z" fill="white"/>
<path fill-rule="evenodd" clip-rule="evenodd" d="M64.4553 66.1428V68.1508H61.5914V75.0759H58.6386V68.1508H55.7615V66.1428H64.4553Z" fill="white"/>
<path d="M53.4212 66.1428H50.4717V75.0759H53.4212V66.1428Z" fill="white"/>
<path fill-rule="evenodd" clip-rule="evenodd" d="M47.7884 66.1428V68.1508H42.765V69.865H47.3868V71.8729H42.765V75.0759H39.8154V66.1428H47.7884Z" fill="white"/>
<path d="M149.373 0V4.92692H160.967V21.4839H166V4.92692V4.53186V0H149.373Z" fill="#E7490F"/>
</g>
<defs>
<clipPath id="clip0_1_30914">
<rect width="166" height="76" fill="white"/>
</clipPath>
</defs>
</svg>
